<?xml version="1.0" encoding="utf-8"?>
<!-- Generator: Adobe Illustrator 22.1.0, SVG Export Plug-In . SVG Version: 6.00 Build 0)  -->
<svg version="1.1" id="Layer_1" xmlns="http://www.w3.org/2000/svg" xmlns:xlink="http://www.w3.org/1999/xlink" x="0px" y="0px"
	 viewBox="0 0 1000 1000" style="enable-background:new 0 0 1000 1000;" xml:space="preserve">
<style type="text/css">
	.st0{fill:#674188;}
	.st1{fill:#C3ACD0;}
</style>
<g>
	<g>
		<path class="st0" d="M268.7,150.3c1.9,20.6,5.8,40.9,10.2,61.1c8.2,34.1,18.4,67.8,31.4,100.3c7.5,18.8,12,38.1,18.9,57
			c2.3,6.6,3.3,11.1,2.9,13.4c-1.1,6-5.2,9.9-12,11.3c-3,0.6-5-0.1-6-2.2c-1-2.1-2.9-9.6-5.7-22.6c-2-9.6-3.9-19.2-5.7-28.8
			c-4-16.3-10.7-32.1-15.7-48c-4.4-14.3-8.5-28.6-12.4-43c-2.6-9.9-5-19.9-7.2-29.9c-4.1-19.6-7.6-39.4-9.3-59.4
			c-12.2,11.5-24.6,22.8-37.2,33.8c-3.4,10.5-6.6,21-9.8,31.6c-2.4,8.6-3.6,12.9-5.8,21.6c-11.5,48.2-18.8,97.4-27.8,146.2
			c-0.8,4.6-1.1,6.9-1.8,11.6c-41.3-0.6-81.6-4.9-122-13.8c13.2-53.9,34.3-103.4,63.7-150.4c8.3-12.8,17.1-25.2,26.3-37.3
			c8.1-10.4,16.7-20.4,25.7-30.1c2.8-3,4.3-4.5,7.2-7.5c24.7-21.6,50.7-40.8,78.7-57.9c-4.9,10.5-9.6,21-14.2,31.6
			c-5.3,13.1-10.3,26.2-15.1,39.4c11.6-10.4,23.1-21,34.3-31.8c17.3-16.6,34.2-33.6,50.6-50.9c9.1-9.6,18.3-19.5,27.8-28.7
			c3.8-3.7,7.3-6.1,10.1-7.1c5.5-1.9,7.7-0.4,6.6,4.4c-0.5,2.5-1.8,4.9-3.7,7.1c-1.9,2.2-6.1,6.1-12.5,11.7
			c-18.3,16.1-35.5,33.6-53,50.5C279.4,140.3,275.9,143.6,268.7,150.3z"/>
		<path class="st0" d="M491.1,36.3c-0.4,5.9-0.6,8.9-1,14.9c-2.8,40.7-4.6,81.4-5.5,122.2c0,29.4,0.4,58.8,1.4,88.2
			c1.1,30.7-6.6,53.3-15.6,82.5c-38.6,14.7-77.7,27.3-117.7,37.5c3.7-17.4,9.1-34.7,12.2-52.1c2.8-15.7,1.9-32.2,2.4-48.2
			c1-34.1,3.2-68.1,6.2-102c3.1-39,7.5-77.8,13.4-116.5c0.8-4.4,1.2-6.6,2-11C422.7,43.4,456.5,38.4,491.1,36.3z"/>
		<path class="st0" d="M747.8,91.7c23.5,30.5,48.8,59.1,76.4,86c12.1,11.5,24.7,22.6,37.7,33.1c13.9,11.3,6.5,10.5,1,11.6
			c-0.6,0.1-1,0.2-1.6,0.3c-40.5,5.8-80.8,12.9-120.7,21.9c10.4-13.9,13-17.1,3.4-32.9c-10.2-16.8-19.8-33.8-29.2-51.1
			C704,177.2,693.8,194,684.1,211c-4.7,8.3-9.4,20.6-15.4,28c-8.2,10-27.1,20.4-37.1,28.2c-15-34-48-61.7-70.5-91.4
			c-8.4,39.7-8.4,85.1-29.6,119.8c-6,10.1-11.5,20.8-18,30.3c-2.4,3.5-5.9,6.3-10.2,8.2c-5.4,2.3-7.4,1.5-6-2.6
			c0.4-1.2,4.5-8.8,12.7-22.3c10.3-17,18-28.8,21.5-48.4c5.5-28.9,11.4-57.7,17.7-86.5c10.7-47.6,22.6-95,35.4-142.1
			c30.4,51.2,65.2,98.7,106.6,141.6C708.6,145.5,726.8,117.6,747.8,91.7z"/>
	</g>
</g>
<g>
	<g>
		<path class="st0" d="M337.3,756.3c25.4-25.5,48.9-52.4,71.2-80.7c4.9-6.6,8.1-10.8,9.6-12.5c1.5-1.7,3-2.8,4.5-3.2
			c1.4-0.4,2.3-0.2,2.8,0.6c0.5,0.8,0.5,2-0.1,3.6c-0.6,1.6-1.8,3.6-3.6,6c-1.2,1.7-2.7,3.6-4.3,5.6c-2.7,3.5-4.1,5.2-6.8,8.6
			C361.8,745,305.2,805.8,235.4,842.5c-2.6,1.3-3.8,2-6.4,3.2c-5.6,2.7-8.9,4-10.1,4.3c-1.2,0.3-2.5-0.1-3.8-1.2
			c-2.1-1.6-2.5-3.5-1.3-5.5c0.6-1.1,2.6-2.1,6-3.2c15.7-6.8,30.3-15.1,44.7-24.2c-0.1-2.4-0.2-3.6-0.4-5.9
			c-1.6-21.5-2.5-43.8-7.2-64.8c-1.7-7.5-4.5-13.9-8.1-12.6c26.1-14.4,52.9-26.9,80.5-38.3C333.3,714.9,335.3,735.7,337.3,756.3z"/>
		<path class="st0" d="M481.9,737.7c-2.4,6.7-5.1,14.8-8.4,24.3c-1.8,5.2-2.7,7.8-4.4,13c-16.9,49.5-35.1,98.4-54.4,147.1
			c14.7,2.5,29.3,4.5,44.1,6c10.6,1,21.3,1.5,32,2c5.2,0.3,6.9,3,4.8,8.3c-1.7,4.4-4,6.8-6.9,7.3c-0.7,0.1-4.4,0.1-11.2-0.2
			c-49.4-4.2-96.7-14.8-143.1-32.2c1.7-3.8,2.6-5.7,4.3-9.5c9-20.5,17.9-41.1,26.7-61.7c9.5-22.1,18.9-44.3,28.1-66.6
			c15.1-38.5,29.7-77.1,43.5-116c43-11.1,86.4-20,130.2-27.4c5.9-1,9.2-1.3,9.9-0.9c1.7,0.6,2.1,3.2,1,7.6c-1.3,5.5-3.8,8.5-7.5,9
			c-0.4,0.1-0.5,0.1-0.9,0.1c-20.8,2.6-41.5,5.5-62.2,8.6c-6.7,22.7-13.8,45.3-21.1,67.8c5.5-0.3,8.2-0.5,13.8-0.8
			c15.1-1.5,30.2-3.1,45.2-4.7c4-0.4,6-0.6,10-1c3.6-0.3,5.9,0.1,6.7,1.1c0.9,1,0.8,3.2-0.1,6.6c-1.7,6.2-5.5,9.5-11.2,9.9
			c-4,0-6.1,0.1-10.1,0.1C521,736.1,501.5,737,481.9,737.7z"/>
		<path class="st0" d="M690.8,605c13.2-1.6,26.1,3.8,35.7,12.9c19.1,18.2,25.5,44.7,27.8,69.6c2.5,27.3-2.5,55.4-10.5,81.3
			c-7.4,24.1-18.7,47.3-31.6,69.3c-18,30.6-41.3,60.5-68.9,82.8c-14.9,12-32.1,25.1-50.3,27.5c-16,2.1-27.5-2.5-37.8-15.3
			c-16.3-20.2-15.3-51.7-13.4-77.9c2.2-22.4,7.2-44.5,13.8-65.7c8.9-28.8,21.1-57.2,35.4-83.8c15.3-28.5,33.7-58.5,58.4-79.3
			C661.4,616.3,674.5,607,690.8,605z M678.1,622.9c-9.8,53.8-22.4,106.7-37.6,159.2c-12.2,42.5-26,84.4-41.3,125.9
			c-3.4,9.2-6.9,18.3-10.5,27.4c2.6,0.5,5.2,0.5,7.9,0c24.3-4.1,44.4-21.2,61.3-37.6c20.9-20.2,39.2-44.9,53.1-70.7
			c10.2-18.9,19.1-38.6,25.3-58.8c7.1-23.5,11.6-49,9.3-73.8c-2-21.8-7.2-47.4-23.8-61.7c-11.2-9.6-19.9-13.1-34.5-12.6
			C684.5,620.5,681.2,621.6,678.1,622.9z"/>
		<path class="st0" d="M911.7,716.9c4.9-9.4,9.5-19,13.7-28.7c6.8-15.5,12.6-31.5,17.7-47.6c2.8-8.9,4.1-13.4,6.4-22.5
			c1.5-5.7,2.2-8.6,3.4-14.4c1.6-6.9,3.8-10.4,6.9-10.5c1.8-0.1,2.9,0.7,3.3,2.2c0.4,1.5,0,4.5-1,8.8c-0.3,1-0.4,1.6-0.6,2.6
			c-0.7,2.6-1.9,6.9-3.5,12.8c-6.2,20.6-13.5,40.5-22,60.2c-8.1,17.7-17,34.8-26.8,51.7c-10.4,17.2-21.5,33.9-33.9,49.8
			c-12.3,15.8-25.7,30.8-40,44.8c-0.9,0.9-5.7-0.3-20.1-13.5c-15.9-14.5-30.6-30.5-45.8-45.9c-1.4,4.3-2.1,6.4-3.5,10.7
			c-12.4,36.8-26.7,72.6-43.1,107.8c-2.6,5.5-3.9,8.3-6.6,13.7c-2.8,5.7-5.8,9.2-8.9,10.6c-3.2,1.4-3-1.4,0.4-8.5
			c2.8-5.7,4.2-8.5,6.9-14.2c4.3-9.2,6.5-13.9,10.6-23.3c15.7-36.3,29.5-73.1,41.4-110.9c15.4-52.6,26.6-105.9,33.9-160.3
			C833.5,636.3,869.2,681.6,911.7,716.9z"/>
	</g>
</g>
<g>
	<g>
		<path class="st1" d="M406.5,396.7c0.2,13.5,1,27,2.1,40.5c3.2,21.4,7.4,42.5,12.6,63.5c3.6,13.8,7.5,27.5,11.8,41.2
			c8.8,29.3-2.3,53.9-21.5,75.8c-15,15.6-33,27.6-51.2,38.6c-25.2,15.3-51.9,28.9-78.1,42.7c-35,18.5-73.1,42.7-113.2,47.5
			c-13.5,1.7-28.1,0.8-40-4.4c-10.2-4.4-20.8-10.5-26.7-21.1c-3.7-6.8-2.3-12.6,4.8-17c6.7-4.1,13.4-1.9,20.1,6.2
			c16.9,20.5,44,18.4,66.8,13.1c25-5.8,49.2-17.2,72.3-29c3.4-1.8,9-4.9,16.7-9.1c-1.7-2.5-2.5-3.7-4.1-6.3
			c-9.7-14.3-17.8-29.2-25.4-44.7c-20.3-44.8-31.6-90.7-34.3-139.8c-1.3-19.8-1.6-39.5,0.4-59.2
			C283.2,428.8,345.3,415.3,406.5,396.7z"/>
		<path class="st1" d="M653.1,283.7c123.9,67.5,244,157.3,317,280.3c-71.6,1.7-143.2,4.9-214.6,10.9c-10.6-11.7-21.8-22.9-33.3-33.9
			c-35.4,4.9-70.6,10.6-105.8,17.3c-30.9,6-61.7,12.7-92.4,19.8c-6.2,1.4-9.4,2.1-15.6,3.6c-5.8,9.8-8.6,14.5-13.9,23.7
			c-3.9,6.9-6.6,11.1-8.4,12.9c-1.8,1.8-4.4,3.2-7.8,4c-6.8,1.7-10.8,1.3-12.1-1.5c-0.5-1.2,0.4-4,2.9-8.4
			c9.2-15.9,19.7-31.5,29.7-47.1c51.5-80.5,99.1-162.3,139.9-248.7C643.9,305.5,648.6,294.6,653.1,283.7z M594.8,441.4
			c-13.7,24.2-27.8,48.1-42.4,71.8c-10.9,18.1-22,36-33.3,53.9c31.3-7.4,62.7-14.4,94.2-20.8c31.6-6.8,63.2-12.8,95-18
			C672.8,496.1,634.9,467.6,594.8,441.4z"/>
	</g>
</g>
</svg>
