<?xml version="1.0" encoding="utf-8"?>
<!-- Generator: Adobe Illustrator 22.1.0, SVG Export Plug-In . SVG Version: 6.00 Build 0)  -->
<svg version="1.1" id="Layer_1" xmlns="http://www.w3.org/2000/svg" xmlns:xlink="http://www.w3.org/1999/xlink" x="0px" y="0px"
	 viewBox="0 0 1000 1000" style="enable-background:new 0 0 1000 1000;" xml:space="preserve">
<g>
	<g>
		<path d="M277.8,169.4c1.8,21.3,5.5,42.3,9.7,63.3c7.8,35.5,17.7,70.6,30.1,104.8c7.9,21.8,16.2,43.7,26.8,64.4
			c3.9,7.9,6.1,13.2,6.2,15.9c0.2,6.8-3.3,10.9-10.4,11.7c-3.1,0.4-5.6-0.7-6.9-3.2c-4.3-8.1-7.5-17.5-10.7-26.4
			c-4-11-7.9-22.1-11.7-33.2c-5.6-16.8-10.9-33.7-16-50.7c-4.2-14.9-8.2-29.8-11.9-44.8c-2.4-10.3-4.8-20.6-6.9-31.1
			c-3.9-20.3-7.3-40.8-8.9-61.4C255.3,190,243,201.1,230.6,212c-3.4,10.7-6.6,21.3-9.7,32.1c-2.4,8.7-3.6,13.1-5.8,21.9
			c-11.7,49.6-19.2,99.6-23,150.4c-0.3,4.9-0.4,7.4-0.6,12.3c-41.9-3.8-82.3-11.7-122.1-25.4c12-53,32-101.8,60.3-148.2
			c8.1-12.6,16.5-24.8,25.5-36.8c7.9-10.2,16.2-20.1,25-29.6c2.8-3,4.2-4.4,7-7.3c24.3-21.3,50-40.1,77.6-56.8
			c-4.9,10.6-9.7,21.3-14.2,32c-5.3,13.3-10.3,26.6-15,40c11.5-10.4,22.8-20.8,34-31.5c17.2-16.5,34-33.5,50.3-50.8
			c9.1-9.6,18.2-19.6,27.6-28.7c3.8-3.7,7.2-6,10.1-7c5.4-1.8,7.6-0.2,6.5,4.8c-0.6,2.6-1.8,5-3.7,7.2c-1.9,2.2-6,6.1-12.4,11.7
			c-18.2,16-35.3,33.5-52.7,50.4C288.4,159.5,284.9,162.8,277.8,169.4z"/>
		<path d="M499,58.5c-0.4,6.3-0.6,9.4-1,15.8c-2.9,43.2-5,86.4-6.2,129.6c-0.5,63.7,0.9,127.2,4.2,190.8
			c-40.7,9.7-81.6,18.3-123,24.9c-1.1-72.2,1.6-144.3,8.2-216.2c3.4-40.4,8.1-80.6,14.1-120.7c0.8-4.6,1.2-6.8,2.1-11.4
			C431,63.9,464.6,59.7,499,58.5z"/>
		<path d="M748.6,120.9c23.8,34.5,49.3,67.4,77.2,98.7c12,12.9,24.2,25.5,36.8,37.7c11,10.4,22.2,20.4,33.8,30.2
			c1.8,1.4,2.7,2.1,4.4,3.5c-40.8,8.4-81.4,17.8-121.9,27.8c-21.1-37.7-40.7-76-59.1-115c-22.2,42.1-42.9,84.9-62.4,128.3
			c-32.7-37.6-62-77.5-89.2-119.2c-8.7,43.5-15.4,87.4-21.2,131.4c-1.5,12.5-2.3,26-5.6,37.8c-1.2,4.1-4.3,7-8.9,8.2
			c-5.8,1.5-8.9-0.3-9.2-5.5c-0.1-1.6,1.3-10.8,4.3-27.4c3.3-18.8,6.7-37.5,10.2-56.2c5.9-30.5,12-60.9,18.5-91.3
			c11-51.4,22.7-102.6,34.2-153.9c30.6,57.5,65.2,112.2,106.5,162.6C713.9,186.1,732.4,154.1,748.6,120.9z"/>
	</g>
</g>
<g>
	<g>
		<path d="M289.2,759.4c5.7-29.9,12.1-59.7,19.2-89.3c1.5-6.9,2.6-11.3,3.4-13.1c0.8-1.7,2-2.8,3.7-3.2c1.5-0.3,2.9,0,4.1,0.9
			c1.2,0.9,2,2.2,2.3,3.9c0.3,1.7,0.2,3.7-0.5,6.2c-0.4,1.8-0.9,3.7-1.6,5.8c-1,3.6-1.6,5.3-2.6,8.9
			c-15.7,60.1-28.2,120.5-37.6,181.8c-0.3,1.6-0.4,2.4-0.7,4c-0.6,3.4-1,5-1.3,5.4c-0.3,0.4-1.1,0.3-2.3-0.4
			c-1.9-1.1-3.4-2.5-4.3-4.4c-0.5-1-0.5-2.1,0.1-3.7c1.9-10.2,3.6-20.5,5.3-30.7c-1.8-2.1-2.7-3.1-4.6-5.1
			c-19.1-20-40.1-40-66.1-50.3c-15.2-6-31.4-6.3-47.5-5.6c24.8-20.2,43.2-46.1,65.8-68.5C249.4,716.6,269.9,737.9,289.2,759.4z"/>
		<path d="M425.3,738.2c0.5,6.2,1.3,13.8,2.2,22.8c0.5,4.9,0.8,7.3,1.3,12.1c5.1,45.4,10.1,90.9,14.8,136.4
			c12.6,1.3,25.2,2,37.8,2.4c10.8,0.3,16.3,0.3,27.2,0c4.5,0,6.8,2.2,6.9,6.8c0.1,3.8-1,6-3.2,6.6c-0.5,0.1-3.6,0.3-9.3,0.4
			c-42-0.7-82.5-6.1-123.2-16.4c-0.7-3.7-1-5.6-1.6-9.3c-3.7-20.2-7.4-40.5-11.1-60.7c-3.9-22.2-7.8-44.4-11.6-66.5
			c-7.5-39.5-14.9-79.1-22.3-118.6c47.4-7,95.5-7,143.3-7c6.4,0,10.1,0.3,11,0.7c2.1,0.9,3.4,3.3,3.7,7.2c0.4,4.9-1.4,7.3-5.4,7.2
			c-0.4,0-0.6,0-0.9,0c-22.6-0.6-45.1-0.8-67.7-0.9c2.3,21.3,4.5,42.6,6.7,64c5.6,0.2,8.5,0.2,14.1,0.4c15.1-0.2,30.3-0.5,45.4-0.8
			c4,0,6-0.1,10-0.1c3.7,0,6.1,0.6,7.3,1.6c1.2,1,1.9,3,2.1,5.9c0.3,5.5-2.4,8.2-8,8.1c-4.1-0.2-6.2-0.4-10.3-0.6
			C464.8,739.3,445.1,738.8,425.3,738.2z"/>
		<path d="M608.4,646.8c15.7,1.9,29,9.2,41.1,18.1c19.2,14.2,33.1,36.7,40.4,59.9c6.2,19.5,7.1,41.1,4.4,61.3
			c-2.3,17.5-8,34.8-15.1,51c-10.2,23.2-24.1,46-42,63.3c-10.4,10-21.7,19.7-36.5,23c-13.5,3.1-27-2.3-37-11.3
			c-19-17.2-29.1-41.6-36.4-65.8c-4.9-18.9-8.3-37.9-9.1-57c-1-24,1.5-48.8,8.4-71.6c7.1-23.4,19-46.7,40.7-61.1
			C579.4,648.6,594.1,645.1,608.4,646.8z M598,659.2c0.5,43,0.3,86-0.7,129c-0.5,34.2-1.5,68.3-3,102.5c-0.4,9-0.6,13.5-1.1,22.5
			c2.4,0.3,4.7,0.3,6.9-0.2c18.4-3.9,32.1-16.9,44-30.6c13.4-15.3,24.2-34.6,31.4-53.6c5.3-14.1,9.6-28.9,11.4-43.5
			c2.3-18.8,1-38.1-4.7-56c-6.2-19.7-17.8-40.1-35.3-52.9c-11.8-8.7-24.2-15.6-39.4-17.2C604.3,658.6,601.1,658.7,598,659.2z"/>
		<path d="M852.9,759.7c4.5-6.5,6.6-9.8,10.8-16.5c5.5-8.8,10.7-18,15.5-27.2c2.7-5.1,4-7.6,6.5-12.8c1.6-3.3,2.3-4.9,3.8-8.2
			c1.8-3.9,4.4-5.7,7.7-5.3c2,0.2,3.1,0.8,3.4,1.8c0.3,1-0.1,2.7-1.4,5.1c-0.3,0.6-0.5,0.9-0.8,1.5c-0.8,1.4-2.1,3.8-3.9,7.1
			c-6.5,11.5-13.4,22.7-20.8,33.6c-6.7,10-13.9,19.7-21.4,29.2c-7.7,9.9-15.7,19.4-24.2,28.5c-8.5,9.2-17.4,17.9-26.6,26.3
			c-9.4,5.1-19.5,0.6-28.3-2.8c-18.8-7.2-37.2-21.2-54.4-33.5c-0.5,3.1-0.8,4.6-1.3,7.7c-4.7,26.1-10.1,52-16.3,77.8
			c-1,4-1.5,6-2.6,10c-1.1,4.2-3,6.8-5.5,7.9c-2.6,1.2-3.3-0.9-2-6.1c1.1-4.2,1.6-6.3,2.6-10.5c1.6-6.8,2.4-10.2,4-17.1
			c5.9-26.7,11.1-53.5,15.7-80.4c5.6-38.2,9.7-76.5,12.5-115C762.7,697.9,804.1,738.7,852.9,759.7z"/>
	</g>
</g>
<g>
	<g>
		<path d="M415.7,448.1c-0.1,9.9-0.1,19.8,0.2,29.7c1.4,15.7,3.2,31.3,5.3,47c1.3,10.1,2.7,20.2,4.2,30.3
			c3.1,24.3-17.9,36.9-36.8,45.9c-18.4,7.7-37.9,12.4-57.1,17.5c-27.4,7.3-54.7,16-79.3,28.6c-30.7,15.7-58.3,48.3-91.8,59.4
			c-11.3,3.9-22.3,1.9-33-1.3c-8.3-2.5-18.3-10.2-22.3-18.4c-2.8-5.8-0.4-10.1,6.5-13.6c6.6-3.3,12.4-1.7,17.2,4.8
			c12.8,17.4,36.2,10.9,51.5,3c20-10.3,39.4-24.9,59.6-35.8c3.2-1.7,8.5-4.6,16.1-8.1c-0.9-1.6-1.3-2.5-2.1-4.2
			c-5.3-9.5-9.2-19.5-13.1-29.6c-10.2-31.3-14.3-62.6-14-95.4c-0.1-13.7,0.2-27.2,1.9-40.8C291.5,465.9,353.7,458.8,415.7,448.1z"/>
		<path d="M671.9,373.3C783.4,435,877.7,534.9,917.1,657.7c-67.6-7.9-134.8-16.9-202.2-26.6c-6.8-11.5-14.2-22.5-22.2-33.2
			c-33.7-2.5-67.4-4.7-101.2-6.2c-29.9-1.2-59.8-1.7-89.7-1.3c-6.1,0.1-9.1,0.1-15.2,0.2c-7.7,5.7-11.5,8.4-18.8,13.5
			c-5.4,3.8-9.1,6-11.3,6.9c-2.2,0.9-4.9,1.3-8.3,1.4c-6.7,0.1-10.2-0.7-10.5-2.6c-0.1-0.8,1.5-2.4,5-4.8
			c13-8.7,26.1-17.5,38.9-26.6c67.5-49.2,125.6-107.9,172.9-176.8C660.6,392.2,666.3,382.8,671.9,373.3z M595.3,500.3
			c-16.9,17.2-34.4,33.4-52.9,48.9c-13.8,11.5-27.9,22.5-42.4,33.1c30.6-0.7,61.1-0.6,91.7,0.2c30.5,0.6,61,1.6,91.4,2.9
			C656.7,553.9,627.4,525.9,595.3,500.3z"/>
	</g>
</g>
</svg>
